<?xml version="1.0" standalone="no"?><!DOCTYPE svg PUBLIC "-//W3C//DTD SVG 1.1//EN" "http://www.w3.org/Graphics/SVG/1.1/DTD/svg11.dtd"><svg t="1587539306262" class="icon" viewBox="0 0 1024 1024" version="1.1" xmlns="http://www.w3.org/2000/svg" p-id="1100" xmlns:xlink="http://www.w3.org/1999/xlink" width="200" height="200"><defs><style type="text/css"></style></defs><path d="M457.152 1024a91.584 91.584 0 0 1-91.456-91.456v-67.392l-47.616 47.616a91.456 91.456 0 0 1-129.344 0L111.168 835.2a91.328 91.328 0 0 1 0-129.28l47.616-47.616H91.456A91.584 91.584 0 0 1 0 566.912V457.152a91.52 91.52 0 0 1 91.456-91.456h67.328l-47.616-47.616a91.456 91.456 0 0 1 0-129.344l77.568-77.632a91.456 91.456 0 0 1 129.344 0l47.616 47.68V91.392A91.584 91.584 0 0 1 457.152 0h109.76a91.584 91.584 0 0 1 91.456 91.392v67.392l47.616-47.68a91.328 91.328 0 0 1 129.28 0l77.632 77.632a91.456 91.456 0 0 1 0 129.344l-47.616 47.616h67.328A91.52 91.52 0 0 1 1024 457.152v109.76a91.584 91.584 0 0 1-91.456 91.456h-67.328l47.616 47.616a91.328 91.328 0 0 1 0 129.28l-77.632 77.568a91.328 91.328 0 0 1-129.28 0l-47.616-47.616v67.392A91.584 91.584 0 0 1 566.912 1024z m-23.36-323.072a67.584 67.584 0 0 1 41.664 62.464v150.912h73.152v-150.912a67.584 67.584 0 0 1 41.664-62.464 67.264 67.264 0 0 1 73.6 14.656l106.688 106.688 51.84-51.712-106.752-106.688a67.264 67.264 0 0 1-14.656-73.6 67.584 67.584 0 0 1 62.464-41.664h150.976V475.456h-150.976a67.52 67.52 0 0 1-62.464-41.728 67.2 67.2 0 0 1 14.656-73.536l106.752-106.688-51.84-51.84-106.688 106.752a67.264 67.264 0 0 1-73.6 14.592 67.52 67.52 0 0 1-41.664-62.464V109.632H475.456v150.912a67.52 67.52 0 0 1-41.664 62.464 67.264 67.264 0 0 1-73.6-14.592L253.504 201.664l-51.84 51.84 106.752 106.688a67.2 67.2 0 0 1 14.592 73.536 67.456 67.456 0 0 1-62.4 41.728H109.632v73.152h150.976a67.456 67.456 0 0 1 62.4 41.664 67.264 67.264 0 0 1-14.592 73.6L201.664 770.56l51.84 51.712 106.688-106.688a67.328 67.328 0 0 1 47.744-19.84 67.392 67.392 0 0 1 25.856 5.184zM347.392 512A164.864 164.864 0 0 1 512 347.392 164.864 164.864 0 0 1 676.544 512 164.8 164.8 0 0 1 512 676.544 164.864 164.864 0 0 1 347.392 512z m109.76 0A55.04 55.04 0 0 0 512 566.912 55.04 55.04 0 0 0 566.912 512 54.976 54.976 0 0 0 512 457.152 54.976 54.976 0 0 0 457.152 512z" p-id="1101"></path></svg>